<svg width="118" height="118" viewBox="0 0 118 118" fill="none" xmlns="http://www.w3.org/2000/svg">
<circle cx="67.0455" cy="115.318" r="2.68182" fill="#FFD138"/>
<circle cx="67.0455" cy="50.9545" r="2.68182" fill="#FFD138"/>
<circle cx="2.68182" cy="115.318" r="2.68182" fill="#FFD138"/>
<circle cx="2.68182" cy="50.9545" r="2.68182" fill="#FFD138"/>
<circle cx="67.0455" cy="83.1363" r="2.68182" fill="#FFD138"/>
<circle cx="67.0455" cy="18.7727" r="2.68182" fill="#FFD138"/>
<circle cx="2.68182" cy="83.1363" r="2.68182" fill="#FFD138"/>
<circle cx="2.68182" cy="18.7727" r="2.68182" fill="#FFD138"/>
<circle cx="67.0455" cy="67.0455" r="2.68182" fill="#FFD138"/>
<circle cx="67.0455" cy="2.68182" r="2.68182" fill="#FFD138"/>
<circle cx="2.68182" cy="67.0455" r="2.68182" fill="#FFD138"/>
<circle cx="2.68182" cy="2.68182" r="2.68182" fill="#FFD138"/>
<circle cx="67.0455" cy="99.2273" r="2.68182" fill="#FFD138"/>
<circle cx="67.0455" cy="34.8636" r="2.68182" fill="#FFD138"/>
<circle cx="2.68182" cy="99.2273" r="2.68182" fill="#FFD138"/>
<circle cx="2.68182" cy="34.8636" r="2.68182" fill="#FFD138"/>
<circle cx="83.1363" cy="115.318" r="2.68182" fill="#FFD138"/>
<circle cx="83.1363" cy="50.9545" r="2.68182" fill="#FFD138"/>
<circle cx="18.7728" cy="115.318" r="2.68182" fill="#FFD138"/>
<circle cx="18.7728" cy="50.9545" r="2.68182" fill="#FFD138"/>
<circle cx="83.1363" cy="83.1363" r="2.68182" fill="#FFD138"/>
<circle cx="83.1363" cy="18.7727" r="2.68182" fill="#FFD138"/>
<circle cx="18.7728" cy="83.1363" r="2.68182" fill="#FFD138"/>
<circle cx="18.7728" cy="18.7727" r="2.68182" fill="#FFD138"/>
<circle cx="83.1363" cy="67.0455" r="2.68182" fill="#FFD138"/>
<circle cx="83.1363" cy="2.68182" r="2.68182" fill="#FFD138"/>
<circle cx="18.7728" cy="67.0455" r="2.68182" fill="#FFD138"/>
<circle cx="18.7728" cy="2.68182" r="2.68182" fill="#FFD138"/>
<circle cx="83.1363" cy="99.2273" r="2.68182" fill="#FFD138"/>
<circle cx="83.1363" cy="34.8636" r="2.68182" fill="#FFD138"/>
<circle cx="18.7728" cy="99.2273" r="2.68182" fill="#FFD138"/>
<circle cx="18.7728" cy="34.8636" r="2.68182" fill="#FFD138"/>
<circle cx="99.2273" cy="115.318" r="2.68182" fill="#FFD138"/>
<circle cx="99.2273" cy="50.9545" r="2.68182" fill="#FFD138"/>
<circle cx="34.8636" cy="115.318" r="2.68182" fill="#FFD138"/>
<circle cx="34.8636" cy="50.9545" r="2.68182" fill="#FFD138"/>
<circle cx="99.2273" cy="83.1363" r="2.68182" fill="#FFD138"/>
<circle cx="99.2273" cy="18.7727" r="2.68182" fill="#FFD138"/>
<circle cx="34.8636" cy="83.1363" r="2.68182" fill="#FFD138"/>
<circle cx="34.8636" cy="18.7727" r="2.68182" fill="#FFD138"/>
<circle cx="99.2273" cy="67.0455" r="2.68182" fill="#FFD138"/>
<circle cx="99.2273" cy="2.68182" r="2.68182" fill="#FFD138"/>
<circle cx="34.8636" cy="67.0455" r="2.68182" fill="#FFD138"/>
<circle cx="34.8636" cy="2.68182" r="2.68182" fill="#FFD138"/>
<circle cx="99.2273" cy="99.2273" r="2.68182" fill="#FFD138"/>
<circle cx="99.2273" cy="34.8636" r="2.68182" fill="#FFD138"/>
<circle cx="34.8636" cy="99.2273" r="2.68182" fill="#FFD138"/>
<circle cx="34.8636" cy="34.8636" r="2.68182" fill="#FFD138"/>
<circle cx="115.318" cy="115.318" r="2.68182" fill="#FFD138"/>
<circle cx="115.318" cy="50.9545" r="2.68182" fill="#FFD138"/>
<circle cx="50.9546" cy="115.318" r="2.68182" fill="#FFD138"/>
<circle cx="50.9546" cy="50.9545" r="2.68182" fill="#FFD138"/>
<circle cx="115.318" cy="83.1363" r="2.68182" fill="#FFD138"/>
<circle cx="115.318" cy="18.7727" r="2.68182" fill="#FFD138"/>
<circle cx="50.9546" cy="83.1363" r="2.68182" fill="#FFD138"/>
<circle cx="50.9546" cy="18.7727" r="2.68182" fill="#FFD138"/>
<circle cx="115.318" cy="67.0455" r="2.68182" fill="#FFD138"/>
<circle cx="115.318" cy="2.68182" r="2.68182" fill="#FFD138"/>
<circle cx="50.9546" cy="67.0455" r="2.68182" fill="#FFD138"/>
<circle cx="50.9546" cy="2.68182" r="2.68182" fill="#FFD138"/>
<circle cx="115.318" cy="99.2273" r="2.68182" fill="#FFD138"/>
<circle cx="115.318" cy="34.8636" r="2.68182" fill="#FFD138"/>
<circle cx="50.9546" cy="99.2273" r="2.68182" fill="#FFD138"/>
<circle cx="50.9546" cy="34.8636" r="2.68182" fill="#FFD138"/>
</svg>
