<svg width="292" height="59" viewBox="0 0 292 59" fill="none" xmlns="http://www.w3.org/2000/svg">
<rect x="2.25427" y="27.7678" width="34.8498" height="34.8498" transform="rotate(-45 2.25427 27.7678)" fill="url(#paint0_linear_11_2)"/>
<circle cx="16.8987" cy="16.5502" r="8.00637" transform="rotate(-45 16.8987 16.5502)" fill="url(#paint1_linear_11_2)"/>
<circle cx="45.0032" cy="40.4728" r="2.99031" transform="rotate(-45 45.0032 40.4728)" fill="url(#paint2_linear_11_2)"/>
<rect x="25.7889" y="36.2438" width="16.7279" height="16.7279" transform="rotate(-90 25.7889 36.2438)" fill="url(#paint3_linear_11_2)"/>
<rect y="19.8644" width="6.62147" height="6.62147" transform="rotate(-90 0 19.8644)" fill="url(#paint4_linear_11_2)"/>
<path d="M6.42472 46.7282L21.9848 31.1681L27.6802 52.4235L6.42472 46.7282Z" fill="url(#paint5_linear_11_2)"/>
<path d="M35.4255 9.29239L43.0968 1.62111L45.9047 12.1003L35.4255 9.29239Z" fill="#4029B5"/>
<path d="M87.5181 29.6018H77.0318V37.4578H89.2892V41H72.5953V15.4681H89.1665V19.0453H77.0318V26.0947H87.5181V29.6018ZM96.4438 22.0264L96.5665 24.2184C97.9694 22.5233 99.8106 21.6757 102.09 21.6757C106.042 21.6757 108.052 23.9378 108.123 28.462V41H103.861V28.7075C103.861 27.5034 103.598 26.6149 103.072 26.0421C102.558 25.4576 101.71 25.1653 100.53 25.1653C98.8111 25.1653 97.531 25.9427 96.6893 27.4975V41H92.4281V22.0264H96.4438ZM116.68 24.0956C118.071 22.4823 119.831 21.6757 121.958 21.6757C126.003 21.6757 128.055 23.9846 128.113 28.6023V41H123.852V28.7601C123.852 27.4508 123.566 26.5272 122.993 25.9895C122.432 25.44 121.602 25.1653 120.503 25.1653C118.796 25.1653 117.522 25.9252 116.68 27.4449V41H112.419V14.0652H116.68V24.0956ZM143.773 41C143.585 40.6376 143.422 40.0472 143.282 39.2289C141.925 40.6434 140.265 41.3507 138.301 41.3507C136.396 41.3507 134.841 40.8071 133.637 39.7199C132.433 38.6327 131.831 37.2883 131.831 35.6867C131.831 33.6642 132.579 32.1153 134.075 31.0397C135.583 29.9525 137.734 29.4089 140.528 29.4089H143.141V28.1639C143.141 27.1819 142.867 26.3986 142.317 25.8141C141.768 25.2179 140.932 24.9198 139.809 24.9198C138.839 24.9198 138.044 25.1653 137.425 25.6563C136.805 26.1356 136.495 26.7493 136.495 27.4975H132.234C132.234 26.4571 132.579 25.4868 133.269 24.5866C133.958 23.6748 134.894 22.9616 136.074 22.4473C137.267 21.9329 138.594 21.6757 140.055 21.6757C142.276 21.6757 144.047 22.2368 145.368 23.3591C146.689 24.4697 147.367 26.0362 147.402 28.0587V36.6161C147.402 38.3229 147.642 39.6848 148.121 40.7019V41H143.773ZM139.091 37.9313C139.932 37.9313 140.721 37.7267 141.458 37.3175C142.206 36.9083 142.767 36.3589 143.141 35.6692V32.0919H140.844C139.266 32.0919 138.079 32.3666 137.284 32.9161C136.489 33.4655 136.092 34.2429 136.092 35.2483C136.092 36.0666 136.361 36.7213 136.899 37.2123C137.448 37.6916 138.179 37.9313 139.091 37.9313ZM155.82 22.0264L155.942 24.2184C157.345 22.5233 159.186 21.6757 161.466 21.6757C165.417 21.6757 167.428 23.9378 167.498 28.462V41H163.237V28.7075C163.237 27.5034 162.974 26.6149 162.448 26.0421C161.934 25.4576 161.086 25.1653 159.905 25.1653C158.187 25.1653 156.907 25.9427 156.065 27.4975V41H151.804V22.0264H155.82ZM179.651 37.9488C180.714 37.9488 181.597 37.639 182.298 37.0194C183 36.3998 183.374 35.6341 183.421 34.7222H187.436C187.39 35.903 187.021 37.0077 186.332 38.0365C185.642 39.0535 184.707 39.8602 183.526 40.4564C182.345 41.0526 181.071 41.3507 179.703 41.3507C177.049 41.3507 174.945 40.4915 173.39 38.773C171.835 37.0545 171.058 34.6813 171.058 31.6535V31.2151C171.058 28.3276 171.83 26.0187 173.373 24.2885C174.916 22.5466 177.02 21.6757 179.686 21.6757C181.942 21.6757 183.777 22.3362 185.192 23.6572C186.618 24.9666 187.366 26.6909 187.436 28.8302H183.421C183.374 27.743 183 26.8487 182.298 26.1473C181.609 25.4459 180.726 25.0952 179.651 25.0952C178.271 25.0952 177.207 25.5978 176.459 26.6032C175.711 27.5969 175.331 29.1108 175.319 31.145V31.8288C175.319 33.8864 175.687 35.4237 176.424 36.4407C177.172 37.4461 178.248 37.9488 179.651 37.9488ZM199.01 41.3507C196.309 41.3507 194.117 40.5032 192.434 38.808C190.762 37.1012 189.926 34.8333 189.926 32.0042V31.4781C189.926 29.5843 190.289 27.895 191.014 26.4103C191.75 24.9139 192.779 23.7507 194.1 22.9207C195.421 22.0907 196.894 21.6757 198.519 21.6757C201.102 21.6757 203.096 22.4999 204.499 24.1482C205.913 25.7966 206.62 28.1288 206.62 31.145V32.8635H194.223C194.351 34.43 194.871 35.6692 195.783 36.581C196.707 37.4929 197.864 37.9488 199.255 37.9488C201.208 37.9488 202.798 37.1597 204.025 35.5815L206.322 37.7734C205.562 38.9074 204.545 39.79 203.271 40.4213C202.008 41.0409 200.588 41.3507 199.01 41.3507ZM198.501 25.0952C197.332 25.0952 196.385 25.5043 195.661 26.3226C194.947 27.141 194.492 28.2808 194.293 29.7421H202.412V29.4265C202.318 28.0002 201.938 26.9247 201.272 26.1999C200.606 25.4634 199.682 25.0952 198.501 25.0952ZM233.59 35.0554H223.7L221.631 41H217.019L226.664 15.4681H230.644L240.306 41H235.677L233.59 35.0554ZM224.945 31.4781H232.345L228.645 20.8866L224.945 31.4781ZM247.899 41H243.48V15.4681H247.899V41Z" fill="url(#paint6_linear_11_2)"/>
<defs>
<linearGradient id="paint0_linear_11_2" x1="19.6792" y1="27.7678" x2="19.6792" y2="62.6177" gradientUnits="userSpaceOnUse">
<stop stop-color="#7B61FF"/>
<stop offset="1" stop-color="#2103BA"/>
</linearGradient>
<linearGradient id="paint1_linear_11_2" x1="16.8987" y1="8.54386" x2="16.8987" y2="24.5566" gradientUnits="userSpaceOnUse">
<stop stop-color="#46E1C5"/>
<stop offset="1" stop-color="#00836B"/>
</linearGradient>
<linearGradient id="paint2_linear_11_2" x1="45.0032" y1="37.4825" x2="45.0032" y2="43.4631" gradientUnits="userSpaceOnUse">
<stop stop-color="#46E1C5"/>
<stop offset="1" stop-color="#00836B"/>
</linearGradient>
<linearGradient id="paint3_linear_11_2" x1="34.1528" y1="36.2438" x2="34.1528" y2="52.9718" gradientUnits="userSpaceOnUse">
<stop stop-color="#FFEC40"/>
<stop offset="1" stop-color="#FFB931"/>
</linearGradient>
<linearGradient id="paint4_linear_11_2" x1="3.31073" y1="19.8644" x2="3.31073" y2="26.4859" gradientUnits="userSpaceOnUse">
<stop stop-color="#FFC961"/>
<stop offset="1" stop-color="#FFE600"/>
</linearGradient>
<linearGradient id="paint5_linear_11_2" x1="6.42472" y1="46.7282" x2="25.9631" y2="41.4713" gradientUnits="userSpaceOnUse">
<stop stop-color="#4029B5"/>
<stop offset="1" stop-color="#130076"/>
</linearGradient>
<linearGradient id="paint6_linear_11_2" x1="73.6474" y1="28.7622" x2="291.09" y2="28.7622" gradientUnits="userSpaceOnUse">
<stop stop-color="#785EFD"/>
<stop offset="1" stop-color="#2BAA93"/>
</linearGradient>
</defs>
</svg>
