<svg xmlns="http://www.w3.org/2000/svg" viewBox="0 0 282.11 61.42"><defs><style>.cls-1{fill:#4b1e78;}</style></defs><title>yamaha</title><g id="レイヤー_2" data-name="レイヤー 2"><g id="レイヤー_1-2" data-name="レイヤー 1"><path class="cls-1" d="M30.71,0A30.71,30.71,0,1,0,61.42,30.71,30.71,30.71,0,0,0,30.71,0Zm0,58A27.25,27.25,0,1,1,58,30.71,27.25,27.25,0,0,1,30.71,58Z"/><path class="cls-1" d="M53,43.08l-4.46-5.21a1,1,0,0,0-.19-.16.77.77,0,0,0-.72,0h0a2.4,2.4,0,0,1-2.21-.09A2.38,2.38,0,0,1,44.31,36h0a6.06,6.06,0,0,0-2.92-4.12l-2-1.15,11.35-6.55-1.4-2.44L36.59,29.09l-1.54-.89V26.43l12.76-7.36-1.4-2.44L35.05,23.19V20.88A6,6,0,0,0,33,16.3h0a2.36,2.36,0,0,1,.2-3.75.79.79,0,0,0,.33-.64.69.69,0,0,0,0-.25L31.16,5.2a.47.47,0,0,0-.9,0L28,11.66a1,1,0,0,0,0,.25.77.77,0,0,0,.34.64h0a2.37,2.37,0,0,1,.19,3.75,6,6,0,0,0-2.1,4.58v2.31L15,16.63l-1.4,2.44,12.76,7.36V28.2l-1.54.89L12.08,21.72l-1.41,2.44L22,30.71l-2,1.15A6,6,0,0,0,17.12,36h0a2.38,2.38,0,0,1-3.36,1.71h0a.75.75,0,0,0-.71,0,.83.83,0,0,0-.2.16L8.39,43.08a.48.48,0,0,0,.45.78l6.74-1.26a.92.92,0,0,0,.23-.09.77.77,0,0,0,.39-.61,2.37,2.37,0,0,1,3.15-2,6,6,0,0,0,5-.47l2-1.15V51.34h2.81V36.61l1.53-.88,1.53.88V51.34h2.81V38.23l2,1.15a6,6,0,0,0,5,.47,2.37,2.37,0,0,1,3.16,2,.73.73,0,0,0,.38.61.92.92,0,0,0,.23.09l6.74,1.26a.47.47,0,0,0,.45-.78ZM26.37,35l-3.75,2.16a1.53,1.53,0,1,1-1.53-2.65l3.74-2.17,1.54.89Zm2.81-14.5a1.53,1.53,0,1,1,3.06,0v4.32l-1.53.89-1.53-.89Zm3.29,11.24-1.76,1-1.76-1v-2l1.76-1,1.76,1Zm8.43,4.86a1.54,1.54,0,0,1-2.1.56L35.05,35V33.22l1.54-.89,3.74,2.17A1.53,1.53,0,0,1,40.9,36.59Z"/><polygon class="cls-1" points="235.19 24.47 224.94 24.47 224.94 3.98 215.58 3.98 215.58 57.44 224.94 57.44 224.94 33.97 235.19 33.97 235.19 57.44 244.76 57.44 244.76 3.98 235.19 3.98 235.19 24.47"/><polygon class="cls-1" points="91.07 3.98 84 24.81 77.6 3.98 68.26 3.98 78.65 36.76 78.65 57.44 89.05 57.44 89.05 35.7 99.82 3.98 91.07 3.98"/><polygon class="cls-1" points="154.07 29.41 148.87 3.98 134.26 3.98 134.26 57.44 142.64 57.44 142.64 17.14 149.79 52.18 157.62 52.18 163.96 16.57 163.96 57.44 173.79 57.44 173.79 3.98 158.56 3.98 154.07 29.41"/><path class="cls-1" d="M273.29,4H258.81L249,57.44h8.66L259.77,45h10.78l2,12.44h9.55Zm-12,32.11,4-23.91,3.87,23.91Z"/><path class="cls-1" d="M187.84,4l-9.77,53.46h8.67L188.81,45h10.78l2,12.44h9.54L202.32,4Zm2.45,32.11,4-23.91,3.87,23.91Z"/><path class="cls-1" d="M106.52,4,96.75,57.44h8.66L107.49,45h10.77l2,12.44h9.54L121,4ZM109,36.09l4-23.91,3.86,23.91Z"/></g></g></svg>