<?xml version="1.0" encoding="utf-8"?>
<!-- Generator: Adobe Illustrator 21.1.0, SVG Export Plug-In . SVG Version: 6.00 Build 0)  -->
<svg version="1.1" id="Layer_1" xmlns="http://www.w3.org/2000/svg" xmlns:xlink="http://www.w3.org/1999/xlink" x="0px" y="0px"
	 viewBox="0 0 500 500" style="enable-background:new 0 0 500 500;" xml:space="preserve">
<style type="text/css">
	.st0{opacity:0.5;fill:#3D1101;}
</style>
<path class="st0" d="M131.9,150.1v63.6h-27.3c-20.1,0-36.3,16.3-36.3,36.3v181.7c0,20.1,16.3,36.3,36.3,36.3h290.7
	c20.1,0,36.3-16.3,36.3-36.3V250c0-20.1-16.3-36.3-36.3-36.3h-27.3v-63.6c0-65.2-52.9-118.1-118.1-118.1S131.9,84.8,131.9,150.1z
	 M177.3,213.7v-63.6c0-40.2,32.5-72.7,72.7-72.7s72.7,32.5,72.7,72.7v63.6H177.3z M213.7,313.6c0-20.1,16.3-36.3,36.3-36.3
	s36.3,16.3,36.3,36.3c0,12.8-6.6,24.1-16.6,30.5c0,0,3.5,21.4,7.5,46.7c0,7.5-6.1,13.6-13.6,13.6h-27.3c-7.5,0-13.6-6.1-13.6-13.6
	l7.5-46.7C220.3,337.7,213.7,326.4,213.7,313.6z"/>
</svg>
